<?xml version="1.0" standalone="no"?><!DOCTYPE svg PUBLIC "-//W3C//DTD SVG 1.1//EN" "http://www.w3.org/Graphics/SVG/1.1/DTD/svg11.dtd"><svg t="1606787308838" class="icon" viewBox="0 0 1024 1024" version="1.1" xmlns="http://www.w3.org/2000/svg" p-id="1418" xmlns:xlink="http://www.w3.org/1999/xlink" width="200" height="200"><defs><style type="text/css"></style></defs><path d="M810.666667 85.333333H298.666667a128 128 0 0 0-128 128v597.333334a128 128 0 0 0 128 128h533.333333a21.333333 21.333333 0 0 0 21.333333-21.333334V128a42.666667 42.666667 0 0 0-42.666666-42.666667zM298.666667 277.333333a21.333333 21.333333 0 0 1 21.333333-21.333333h384a21.333333 21.333333 0 0 1 21.333333 21.333333v42.666667a21.333333 21.333333 0 0 1-21.333333 21.333333h-384a21.333333 21.333333 0 0 1-21.333333-21.333333z m0 170.666667a21.333333 21.333333 0 0 1 21.333333-21.333333h213.333333a21.333333 21.333333 0 0 1 21.333334 21.333333v42.666667a21.333333 21.333333 0 0 1-21.333334 21.333333h-213.333333a21.333333 21.333333 0 0 1-21.333333-21.333333zM256 810.666667a42.666667 42.666667 0 0 1 42.666667-42.666667h469.333333v85.333333H298.666667a42.666667 42.666667 0 0 1-42.666667-42.666666z" p-id="1419"></path></svg>